<svg id="visual" viewBox="0 0 900 450" width="900" height="450" xmlns="http://www.w3.org/2000/svg" xmlns:xlink="http://www.w3.org/1999/xlink" version="1.1"><rect x="0" y="0" width="900" height="450" fill="#FFFFFF"></rect><defs><linearGradient id="grad1_0" x1="50%" y1="0%" x2="100%" y2="100%"><stop offset="10%" stop-color="#ffffff" stop-opacity="1"></stop><stop offset="90%" stop-color="#ffffff" stop-opacity="1"></stop></linearGradient></defs><defs><linearGradient id="grad2_0" x1="0%" y1="0%" x2="50%" y2="100%"><stop offset="10%" stop-color="#ffffff" stop-opacity="1"></stop><stop offset="90%" stop-color="#ffffff" stop-opacity="1"></stop></linearGradient></defs><g transform="translate(900, 0)"><path d="M0 157.5C-17.4 156.1 -34.8 154.8 -47.3 145.5C-59.7 136.2 -67.3 119 -79.4 109.2C-91.4 99.4 -108.1 96.9 -121.4 88.2C-134.6 79.4 -144.3 64.4 -149.8 48.7C-155.2 32.9 -156.4 16.5 -157.5 0L0 0Z" fill="#6213c8"></path></g><g transform="translate(0, 450)"><path d="M0 -157.5C15.5 -154.1 31 -150.6 47.6 -146.5C64.1 -142.3 81.7 -137.4 91.1 -125.4C100.5 -113.4 101.6 -94.2 111.6 -81.1C121.7 -68.1 140.7 -61.2 149.8 -48.7C158.9 -36.2 158.2 -18.1 157.5 0L0 0Z" fill="#6213c8"></path></g></svg>